<svg width="68" height="68" viewBox="0 0 68 68" fill="none" xmlns="http://www.w3.org/2000/svg">
<path d="M44.0059 45.7938L34.0111 56L24.0163 45.7938C23.357 45.1323 22.8378 44.3373 22.4911 43.4588C22.1445 42.5803 21.9781 41.6373 22.0023 40.6892C22.0265 39.7411 22.2409 38.8084 22.6319 37.95C23.0229 37.0915 23.582 36.3258 24.2741 35.701C24.9662 35.0763 25.7763 34.6061 26.6533 34.32C27.5304 34.0339 28.4553 33.9382 29.37 34.0388C30.2847 34.1394 31.1692 34.4341 31.968 34.9045C32.7667 35.3749 33.4624 36.0108 34.0111 36.772C34.5622 36.0163 35.2586 35.386 36.0568 34.9206C36.855 34.4552 37.7378 34.1647 38.6499 34.0672C39.5621 33.9698 40.4839 34.0675 41.3577 34.3542C42.2315 34.641 43.0385 35.1106 43.7281 35.7337C44.4178 36.3568 44.9753 37.12 45.3658 37.9755C45.7562 38.8309 45.9712 39.7603 45.9973 40.7054C46.0234 41.6505 45.86 42.5909 45.5173 43.4679C45.1747 44.3449 44.6601 45.1395 44.0059 45.802" stroke="#DC2626" stroke-width="3" stroke-linecap="round"/>
<path d="M23 39H12V26H27V12H41V26H56V39H45" stroke="#DC2626" stroke-width="3"/>
</svg>
