<svg width="175" height="68" viewBox="0 0 175 68" fill="none" xmlns="http://www.w3.org/2000/svg">
<path d="M44.0059 45.7938L34.0111 56L24.0163 45.7938C23.357 45.1323 22.8378 44.3373 22.4911 43.4588C22.1445 42.5803 21.9781 41.6373 22.0023 40.6892C22.0265 39.7411 22.2409 38.8084 22.6319 37.95C23.0229 37.0915 23.582 36.3258 24.2741 35.701C24.9662 35.0763 25.7763 34.6061 26.6533 34.32C27.5304 34.0339 28.4553 33.9382 29.37 34.0388C30.2847 34.1394 31.1692 34.4341 31.968 34.9045C32.7667 35.3749 33.4624 36.0108 34.0111 36.772C34.5622 36.0163 35.2586 35.386 36.0568 34.9206C36.855 34.4552 37.7378 34.1647 38.6499 34.0672C39.5621 33.9698 40.4839 34.0675 41.3577 34.3542C42.2315 34.641 43.0385 35.1106 43.7281 35.7337C44.4178 36.3568 44.9753 37.12 45.3658 37.9755C45.7562 38.8309 45.9712 39.7603 45.9973 40.7054C46.0234 41.6505 45.86 42.5909 45.5173 43.4679C45.1747 44.3449 44.6601 45.1395 44.0059 45.802" stroke="#DC2626" stroke-width="3" stroke-linecap="round"/>
<path d="M23 39H12V26H27V12H41V26H56V39H45" stroke="#DC2626" stroke-width="3"/>
<path d="M73.626 31.9307L69.8447 19.6094H69.748C69.7624 19.903 69.7839 20.347 69.8125 20.9414C69.8483 21.5286 69.8805 22.1553 69.9092 22.8213C69.9378 23.4873 69.9521 24.0889 69.9521 24.626V31.9307H66.9766V16.2256H71.5098L75.2266 28.2354H75.291L79.2334 16.2256H83.7666V31.9307H80.6621V24.4971C80.6621 24.0029 80.6693 23.4336 80.6836 22.7891C80.7051 22.1445 80.7301 21.5322 80.7588 20.9521C80.7874 20.3649 80.8089 19.9245 80.8232 19.6309H80.7266L76.6768 31.9307H73.626Z" fill="#DC2626"/>
<path d="M96.7754 31.9307H87.7305V16.2256H96.7754V18.9541H91.0605V22.4023H96.3779V25.1309H91.0605V29.1807H96.7754V31.9307Z" fill="#DC2626"/>
<path d="M113.093 23.9277C113.093 25.6966 112.753 27.1755 112.072 28.3643C111.399 29.5459 110.422 30.4375 109.14 31.0391C107.858 31.6335 106.314 31.9307 104.51 31.9307H100.062V16.2256H104.993C106.64 16.2256 108.069 16.5192 109.279 17.1064C110.49 17.6865 111.428 18.5495 112.094 19.6953C112.76 20.834 113.093 22.2448 113.093 23.9277ZM109.634 24.0137C109.634 22.8535 109.462 21.901 109.118 21.1562C108.782 20.4043 108.28 19.8493 107.614 19.4912C106.955 19.1331 106.139 18.9541 105.165 18.9541H103.393V29.1807H104.821C106.447 29.1807 107.654 28.7474 108.441 27.8809C109.236 27.0143 109.634 25.7253 109.634 24.0137Z" fill="#DC2626"/>
<path d="M116.348 31.9307V16.2256H119.678V31.9307H116.348Z" fill="#DC2626"/>
<path d="M130.302 18.7715C129.664 18.7715 129.099 18.8968 128.604 19.1475C128.118 19.391 127.706 19.7454 127.369 20.2109C127.04 20.6764 126.789 21.2386 126.617 21.8975C126.445 22.5563 126.359 23.2975 126.359 24.1211C126.359 25.2311 126.495 26.18 126.768 26.9678C127.047 27.7484 127.477 28.3464 128.057 28.7617C128.637 29.1699 129.385 29.374 130.302 29.374C130.939 29.374 131.576 29.3024 132.214 29.1592C132.858 29.016 133.557 28.8118 134.309 28.5469V31.3398C133.614 31.6263 132.93 31.8304 132.257 31.9521C131.584 32.0811 130.828 32.1455 129.99 32.1455C128.372 32.1455 127.04 31.8125 125.994 31.1465C124.956 30.4733 124.186 29.5352 123.685 28.332C123.183 27.1217 122.933 25.7109 122.933 24.0996C122.933 22.9108 123.094 21.8223 123.416 20.834C123.738 19.8457 124.211 18.9899 124.834 18.2666C125.457 17.5433 126.227 16.9847 127.144 16.5908C128.06 16.1969 129.113 16 130.302 16C131.082 16 131.863 16.1003 132.644 16.3008C133.431 16.4941 134.183 16.7627 134.899 17.1064L133.825 19.8135C133.238 19.5342 132.647 19.2907 132.053 19.083C131.458 18.8753 130.875 18.7715 130.302 18.7715Z" fill="#DC2626"/>
<path d="M147.274 31.9307L146.136 28.1924H140.41L139.271 31.9307H135.684L141.227 16.1611H145.298L150.862 31.9307H147.274ZM145.341 25.3994L144.202 21.7471C144.131 21.5036 144.034 21.1921 143.912 20.8125C143.798 20.4258 143.679 20.0355 143.558 19.6416C143.443 19.2406 143.35 18.8932 143.278 18.5996C143.207 18.8932 143.106 19.2585 142.978 19.6953C142.856 20.125 142.738 20.5332 142.623 20.9199C142.508 21.3066 142.426 21.5824 142.376 21.7471L141.248 25.3994H145.341Z" fill="#DC2626"/>
<path d="M152.85 31.9307V16.2256H156.18V29.1807H162.55V31.9307H152.85Z" fill="#DC2626"/>
<path d="M71.4453 41.5166C70.8151 41.5166 70.2474 41.626 69.7422 41.8447C69.2422 42.0583 68.8151 42.3708 68.4609 42.7822C68.112 43.1885 67.8438 43.6807 67.6562 44.2588C67.4688 44.8369 67.375 45.488 67.375 46.2119C67.375 47.1702 67.5234 48.0036 67.8203 48.7119C68.1224 49.415 68.5703 49.9593 69.1641 50.3447C69.763 50.7301 70.5104 50.9229 71.4062 50.9229C71.9167 50.9229 72.3958 50.8812 72.8438 50.7979C73.2969 50.7093 73.737 50.5999 74.1641 50.4697V51.626C73.7474 51.7822 73.3099 51.8968 72.8516 51.9697C72.3932 52.0479 71.849 52.0869 71.2188 52.0869C70.0573 52.0869 69.0859 51.8473 68.3047 51.3682C67.5286 50.8838 66.9453 50.2015 66.5547 49.3213C66.1693 48.4411 65.9766 47.402 65.9766 46.2041C65.9766 45.3395 66.0964 44.5505 66.3359 43.8369C66.5807 43.1182 66.9349 42.4984 67.3984 41.9775C67.8672 41.4567 68.4401 41.0557 69.1172 40.7744C69.7995 40.488 70.5807 40.3447 71.4609 40.3447C72.0391 40.3447 72.5964 40.402 73.1328 40.5166C73.6693 40.6312 74.1536 40.7952 74.5859 41.0088L74.0547 42.1338C73.6901 41.9671 73.2891 41.8239 72.8516 41.7041C72.4193 41.5791 71.9505 41.5166 71.4453 41.5166Z" fill="#DC2626"/>
<path d="M83 51.9307H76.6406V40.5088H83V41.6807H77.9688V45.376H82.7109V46.5322H77.9688V50.7588H83V51.9307Z" fill="#DC2626"/>
<path d="M94.4609 51.9307H92.9297L86.7031 42.3369H86.6406C86.6562 42.5921 86.6745 42.8838 86.6953 43.2119C86.7161 43.5348 86.7318 43.8812 86.7422 44.251C86.7578 44.6156 86.7656 44.988 86.7656 45.3682V51.9307H85.5312V40.5088H87.0547L93.2578 50.0713H93.3125C93.3021 49.889 93.2891 49.6312 93.2734 49.2979C93.2578 48.9593 93.2422 48.5973 93.2266 48.2119C93.2161 47.8213 93.2109 47.4593 93.2109 47.126V40.5088H94.4609V51.9307Z" fill="#DC2626"/>
<path d="M101.086 51.9307H99.75V41.6807H96.1562V40.5088H104.664V41.6807H101.086V51.9307Z" fill="#DC2626"/>
<path d="M112.75 51.9307H106.391V40.5088H112.75V41.6807H107.719V45.376H112.461V46.5322H107.719V50.7588H112.75V51.9307Z" fill="#DC2626"/>
<path d="M118.367 40.5088C119.305 40.5088 120.078 40.626 120.688 40.8604C121.302 41.0895 121.76 41.4411 122.062 41.915C122.365 42.389 122.516 42.9932 122.516 43.7275C122.516 44.3317 122.406 44.8369 122.188 45.2432C121.969 45.6442 121.682 45.9697 121.328 46.2197C120.974 46.4697 120.596 46.6624 120.195 46.7979L123.328 51.9307H121.781L118.984 47.165H116.609V51.9307H115.281V40.5088H118.367ZM118.289 41.6572H116.609V46.04H118.422C119.354 46.04 120.039 45.8499 120.477 45.4697C120.919 45.0895 121.141 44.5296 121.141 43.79C121.141 43.014 120.906 42.4645 120.438 42.1416C119.974 41.8187 119.258 41.6572 118.289 41.6572Z" fill="#DC2626"/>
</svg>
